# xmcd
#
# Track frame offsets:
#	150
#	13289
#	25325
#	40332
#	49419
#	62345
#	72052
#	83729
#	95924
#	107085
#
# Disc length: 1565 seconds
# Revision: 0
# Processed by: cddbd v1.5.2PL0 Copyright (c) Steve Scherf et al.
# Submitted via: dBpowerAMP V12.0
#
DISCID=84061b0a
DTITLE=Kari Hlavinka - This Is It
DYEAR=2004
DGENRE=Country
TTITLE0=Pride
TTITLE1=Louisiana Man
TTITLE2=Send A Message To My Heart
TTITLE3=I'll Come Running
TTITLE4=Life After Dark
TTITLE5=Silver Threads and Golden Needles
TTITLE6=Then And then
TTITLE7=This Is It
TTITLE8=You're No Good
TTITLE9=I'll Fly Away
EXTD=
EXTT0=
EXTT1=
EXTT2=
EXTT3=
EXTT4=
EXTT5=
EXTT6=
EXTT7=
EXTT8=
EXTT9=
PLAYORDER=
